pv_tone_lookup:
; midi: C3, fur: C1
.db 0
; midi: C#3, fur: C#1
.db 0
; midi: D3, fur: D1
.db 4
; midi: D#3, fur: D#1
.db 7
; midi: E3, fur: E1
.db 10
; midi: F3, fur: F1
.db 13
; midi: F#3, fur: F#1
.db 16
; midi: G3, fur: G1
.db 18
; midi: G#3, fur: G#1
.db 21
; midi: A3, fur: A1
.db 23
; midi: A#3, fur: A#1
.db 26
; midi: B3, fur: B1
.db 28
; midi: C4, fur: C2
.db 30
; midi: C#4, fur: C#2
.db 32
; midi: D4, fur: D2
.db 33
; midi: D#4, fur: D#2
.db 35
; midi: E4, fur: E2
.db 37
; midi: F4, fur: F2
.db 38
; midi: F#4, fur: F#2
.db 39
; midi: G4, fur: G2
.db 41
; midi: G#4, fur: G#2
.db 42
; midi: A4, fur: A2
.db 43
; midi: A#4, fur: A#2
.db 44
; midi: B4, fur: B2
.db 45
; midi: C5, fur: C3
.db 46
; midi: C#5, fur: C#3
.db 47
; midi: D5, fur: D3
.db 48
; midi: D#5, fur: D#3
.db 49
; midi: E5, fur: E3
.db 50
; midi: F5, fur: F3
.db 50
; midi: F#5, fur: F#3
.db 51
; midi: G5, fur: G3
.db 52
; midi: G#5, fur: G#3
.db 52
; midi: A5, fur: A3
.db 53
; midi: A#5, fur: A#3
.db 54
; midi: B5, fur: B3
.db 54
; midi: C6, fur: C4
.db 55
; midi: C#6, fur: C#4
.db 55
; midi: D6, fur: D4
.db 56
; midi: D#6, fur: D#4
.db 56
; midi: E6, fur: E4
.db 56
; midi: F6, fur: F4
.db 57
; midi: F#6, fur: F#4
.db 57
; midi: G6, fur: G4
.db 57
; midi: G#6, fur: G#4
.db 58
; midi: A6, fur: A4
.db 58
; midi: A#6, fur: A#4
.db 58
; midi: B6, fur: B4
.db 59
; midi: C7, fur: C5
.db 59
; midi: C#7, fur: C#5
.db 59
; midi: D7, fur: D5
.db 59
; midi: D#7, fur: D#5
.db 59
; midi: E7, fur: E5
.db 60
; midi: F7, fur: F5
.db 60
; midi: F#7, fur: F#5
.db 60
; midi: G7, fur: G5
.db 60
; midi: G#7, fur: G#5
.db 60
; midi: A7, fur: A5
.db 61
; midi: A#7, fur: A#5
.db 61
; midi: B7, fur: B5
.db 61
; midi: C8, fur: C6
.db 61
; midi: C#8, fur: C#6
.db 61
; midi: D8, fur: D6
.db 61
; midi: D#8, fur: D#6
.db 61
; midi: E8, fur: E6
.db 61
; midi: F8, fur: F6
.db 61
; midi: F#8, fur: F#6
.db 62
; midi: G8, fur: G6
.db 62
; midi: G#8, fur: G#6
.db 62
; midi: A8, fur: A6
.db 62
; midi: A#8, fur: A#6
.db 62
; midi: B8, fur: B6
.db 62
